<svg width="20" height="20" viewBox="0 0 20 20" fill="none" xmlns="http://www.w3.org/2000/svg">
<path fill-rule="evenodd" clip-rule="evenodd" d="M10 18C5.02944 18 1 13.9706 1 9C1 4.02944 5.02944 0 10 0C14.9706 0 19 4.02944 19 9C19 13.9706 14.9706 18 10 18ZM9.99995 16.3636C14.0668 16.3636 17.3636 13.0668 17.3636 8.99995C17.3636 4.93313 14.0668 1.63632 9.99995 1.63632C5.93313 1.63632 2.63632 4.93313 2.63632 8.99995C2.63632 13.0668 5.93313 16.3636 9.99995 16.3636ZM5.98211 11.9678L7.32058 12.9091C7.93042 12.042 8.92025 11.5164 9.99985 11.5164C11.0794 11.5164 12.0693 12.042 12.6791 12.9091L14.0176 11.9678C13.1045 10.6695 11.6178 9.88008 9.99985 9.88008C8.38185 9.88008 6.89522 10.6695 5.98211 11.9678ZM11.6363 8.18176V6.5454H13.2727V8.18176H11.6363ZM6.72737 6.5454V8.18176H8.36373V6.5454H6.72737Z" fill="black"/>
</svg>
