<svg width="20" height="20" viewBox="0 0 20 20" fill="none" xmlns="http://www.w3.org/2000/svg">
<path fill-rule="evenodd" clip-rule="evenodd" d="M9.99432 20C4.53977 17.5701 1.8125 15.1458 1.8125 12.7273V3.63636C1.8125 2.93855 2.08032 2.77638 2.82152 2.32754C3.04594 2.19164 3.31376 2.02946 3.63068 1.81818C3.77777 1.72013 6.86996 0 9.99432 0C12.7173 0 14.9943 0.909091 16.358 1.81818C16.6749 2.02946 16.9427 2.19164 17.1671 2.32753L17.1671 2.32754C17.9083 2.77638 18.1761 2.93855 18.1761 3.63636C18.1941 3.83385 18.1852 8.03359 18.1796 10.7223V10.7225L18.1796 10.7239C18.1777 11.6401 18.1761 12.3807 18.1761 12.7273C18.1761 15.1515 15.4489 17.5758 9.99432 20ZM16.3578 12.7273C16.3578 12.5179 16.3583 12.1671 16.3594 11.5952L16.3631 9.81947C16.3643 9.24501 16.3652 8.75204 16.366 8.28162C16.3693 6.25239 16.3684 4.51074 16.3665 3.97207L16.2416 3.89457L16.2416 3.89455C15.9476 3.71218 15.5645 3.47449 15.3492 3.331C14.0071 2.43628 12.0488 1.81818 9.99413 1.81818C8.02875 1.81818 5.47471 2.77388 4.63904 3.331C4.42381 3.47448 4.04066 3.71218 3.74669 3.89455L3.63049 3.96666V12.7273C3.63049 14.0986 5.65696 15.9716 9.99497 18.0018C14.3325 15.9761 16.3578 14.1038 16.3578 12.7273ZM12.9879 6.62994L9.08531 10.5326L7.00086 8.44813L5.71521 9.73377L9.08531 13.1039L14.2736 7.91559L12.9879 6.62994Z" fill="black"/>
</svg>
