<svg width="20" height="20" viewBox="0 0 20 20" fill="none" xmlns="http://www.w3.org/2000/svg">
<path fill-rule="evenodd" clip-rule="evenodd" d="M12.7611 2.063C13.6107 1.81623 14.4963 2.31635 14.739 3.18004C14.7799 3.32535 14.8006 3.47574 14.8006 3.62686V4.9884H16.4C17.2837 4.9884 18 5.71659 18 6.61485V16.3735C18 17.2718 17.2837 17.9999 16.4 17.9999H3.6C2.71634 17.9999 2 17.2718 2 16.3735H2.02197C2.00777 16.286 2.00061 16.1975 2.00061 16.1086V6.41505C2.00061 5.68887 2.47417 5.05068 3.16106 4.85119L12.7611 2.063ZM8.5127 16.3735H16.4V6.61485H14.8006V8.24127H16.3998V9.86827H14.8006V13.3204C14.8006 14.0466 14.327 14.6848 13.6402 14.8843L8.5127 16.3735ZM3.59949 6.41563V16.1092L13.1995 13.321V3.62744L3.59949 6.41563ZM11.6002 8.2416C11.6002 8.69089 11.2421 9.0551 10.8002 9.0551C10.3584 9.0551 10.0002 8.69089 10.0002 8.2416C10.0002 7.79232 10.3584 7.4281 10.8002 7.4281C11.2421 7.4281 11.6002 7.79232 11.6002 8.2416Z" fill="black"/>
</svg>
