<svg width="20" height="20" viewBox="0 0 20 20" fill="none" xmlns="http://www.w3.org/2000/svg">
<g clip-path="url(#clip0_1058_41221)">
<path d="M12.8491 11.4536C12.8491 11.826 12.7856 12.1667 12.6587 12.4756C12.5317 12.7845 12.3392 13.0532 12.0811 13.2817C11.8271 13.506 11.5034 13.6816 11.1099 13.8086C10.7163 13.9355 10.2064 13.999 9.58008 13.999H7.41553C7.26318 13.999 7.13835 13.9588 7.04102 13.8784C6.94792 13.7938 6.90137 13.652 6.90137 13.4531V6.31201C6.90137 6.12581 6.94792 5.99251 7.04102 5.91211C7.13835 5.82747 7.25684 5.78516 7.39648 5.78516H12.043C12.0853 5.78516 12.1213 5.79574 12.1509 5.81689C12.1847 5.83805 12.2122 5.87614 12.2334 5.93115C12.2588 5.98193 12.2757 6.04964 12.2842 6.13428C12.2969 6.21468 12.3032 6.31836 12.3032 6.44531C12.3032 6.5638 12.2969 6.66536 12.2842 6.75C12.2757 6.8304 12.2588 6.89811 12.2334 6.95312C12.2122 7.00391 12.1847 7.04199 12.1509 7.06738C12.1213 7.08854 12.0874 7.09912 12.0493 7.09912H8.5708V9.14307H9.93555C10.4645 9.14307 10.9004 9.19385 11.2432 9.29541C11.5859 9.39697 11.8758 9.5472 12.1128 9.74609C12.3498 9.94499 12.5317 10.1883 12.6587 10.4761C12.7856 10.7638 12.8491 11.0897 12.8491 11.4536ZM11.1543 11.5615C11.1543 11.3796 11.1247 11.2166 11.0654 11.0728C11.0062 10.9246 10.9194 10.7998 10.8052 10.6982C10.6909 10.5924 10.5428 10.512 10.3608 10.457C10.1831 10.402 9.94401 10.3745 9.64355 10.3745H8.5708V12.7422H9.6626C9.93343 12.7422 10.1556 12.7168 10.3291 12.666C10.5068 12.6152 10.6549 12.5391 10.7734 12.4375C10.8919 12.3359 10.985 12.2111 11.0527 12.063C11.1204 11.9149 11.1543 11.7477 11.1543 11.5615Z" fill="black"/>
<path fill-rule="evenodd" clip-rule="evenodd" d="M10 18.3C14.584 18.3 18.3 14.584 18.3 10C18.3 5.41604 14.584 1.7 10 1.7C5.41604 1.7 1.7 5.41604 1.7 10C1.7 14.584 5.41604 18.3 10 18.3ZM10 20C15.5228 20 20 15.5228 20 10C20 4.47715 15.5228 0 10 0C4.47715 0 0 4.47715 0 10C0 15.5228 4.47715 20 10 20Z" fill="black"/>
</g>
<defs>
<clipPath id="clip0_1058_41221">
<rect width="20" height="20" rx="10" fill="white"/>
</clipPath>
</defs>
</svg>
